<svg width="1600" height="1000" viewBox="0 0 1600 1000" fill="none" xmlns="http://www.w3.org/2000/svg">
  <rect width="1600" height="1000" fill="#040404"/>
  <path d="M122 697C334 577 539 523 745 536C951 549 1067 653 1284 654C1394 654 1461 628 1516 598" stroke="#CFFF28" stroke-width="4" stroke-linecap="round"/>
  <path d="M122 578C324 471 491 431 662 437C903 446 1055 565 1289 563C1384 562 1457 540 1516 512" stroke="#F3F8F0" stroke-opacity="0.22" stroke-width="3" stroke-linecap="round"/>
  <circle cx="516" cy="437" r="17" fill="#CFFF28"/>
  <circle cx="742" cy="536" r="17" fill="#CFFF28"/>
  <circle cx="1284" cy="654" r="17" fill="#CFFF28"/>
  <rect x="124" y="126" width="540" height="228" rx="24" fill="#0A0D09" stroke="#F3F8F0" stroke-opacity="0.12"/>
  <text x="172" y="204" fill="#CFFF28" font-family="Arial, sans-serif" font-size="22" letter-spacing="5">WEBSTAR SIGNAL STACK</text>
  <text x="172" y="284" fill="#F3F8F0" font-family="Arial, sans-serif" font-size="68">INTELLIGENCE</text>
  <text x="172" y="324" fill="#F3F8F0" fill-opacity="0.62" font-family="Arial, sans-serif" font-size="24">Applied systems with measurable movement</text>
</svg>
